<svg xmlns="http://www.w3.org/2000/svg" width="959" height="339" viewBox="0 0 959 339" fill="none"><mask id="a" style="mask-type:alpha" maskUnits="userSpaceOnUse" x="0" y="0" width="959" height="339"><path fill="#D9D9D9" d="M0 0h959v339H0z"/></mask><g mask="url(#a)" fill="#cd3318"><path d="m818.902 132.711 28.147-28.147-96.501-96.501-28.147 28.147 96.501 96.501ZM722.401-20.084 694.254-48.23 597.753 48.27 625.9 76.417l96.501-96.5ZM971.698-20.078l-28.147-28.147-96.501 96.5 28.147 28.148 96.501-96.501ZM971.694 92.505l-28.147-28.147-96.501 96.501 28.147 28.147 96.501-96.501ZM569.608 132.709l28.147-28.147-96.501-96.5-28.147 28.146 96.501 96.501ZM473.114-20.08l-28.147-28.147-96.501 96.5 28.147 28.148 96.501-96.501ZM722.404 92.5l-28.147-28.148-96.501 96.501L625.903 189l96.501-96.5ZM818.903 245.297l28.147-28.147-96.501-96.501-28.147 28.147 96.501 96.501ZM818.905 357.879l28.147-28.147-96.501-96.501-28.147 28.147 96.501 96.501ZM722.404 205.084l-28.147-28.147-96.501 96.501 28.147 28.147 96.501-96.501ZM971.7 205.084l-28.147-28.147-96.501 96.501 28.147 28.147 96.501-96.501ZM971.698 317.672l-28.147-28.147-96.501 96.501 28.147 28.147 96.501-96.501ZM223.821-20.082l-28.147-28.147-96.501 96.501L127.32 76.42l96.501-96.5ZM320.318 132.713l28.147-28.147-96.501-96.501-28.147 28.147 96.501 96.501ZM320.319 245.299l28.147-28.147-96.501-96.501-28.147 28.147 96.501 96.501ZM223.817 92.501 195.67 64.354l-96.501 96.501 28.147 28.147 96.501-96.5ZM473.111 92.503l-28.147-28.147-96.501 96.501 28.147 28.147 96.501-96.501ZM569.614 245.295l28.147-28.147-96.501-96.501-28.147 28.147 96.501 96.501ZM569.61 357.877l28.147-28.147-96.501-96.501-28.147 28.147 96.501 96.501ZM473.111 205.082l-28.147-28.147-96.501 96.501 28.147 28.147 96.501-96.501ZM722.401 317.667l-28.148-28.148-96.501 96.501 28.147 28.148 96.502-96.501ZM223.824 205.085l-28.147-28.147-96.501 96.501 28.147 28.148 96.501-96.502ZM320.316 357.881l28.147-28.147-96.501-96.501-28.147 28.147 96.501 96.501ZM223.821 317.668l-28.147-28.147-96.501 96.501 28.147 28.147 96.501-96.501ZM473.113 317.67l-28.147-28.147-96.501 96.501 28.147 28.147 96.501-96.501ZM71.027 132.708l28.147-28.148L2.673 8.06l-28.147 28.146 96.5 96.502ZM71.027 245.293l28.147-28.147-96.501-96.501-28.147 28.147 96.5 96.501ZM71.03 357.875l28.147-28.147-96.501-96.501-28.147 28.147 96.5 96.501Z"/></g></svg>